<svg width="472" height="101" viewBox="0 0 472 101" fill="none" xmlns="http://www.w3.org/2000/svg">
<path fill-rule="evenodd" clip-rule="evenodd" d="M15.897 31.2851C18.2556 30.7319 20.821 30.3436 23.541 30.1257C22.3429 27.6188 21.3768 25.1614 20.665 22.804C19.5525 19.1197 18.9883 15.4392 19.3045 12.0795C19.6236 8.68974 20.8915 5.27592 23.7733 2.85783C26.6551 0.439733 30.2372 -0.216132 33.6309 0.0582706C36.9944 0.33024 40.5211 1.52498 43.9563 3.26031C50.8439 6.73969 58.2648 12.8487 64.8057 20.6439C70.0838 26.934 74.1811 33.5978 76.7385 39.8179C78.0238 37.583 79.3315 35.5454 80.6363 33.746C82.72 30.8721 84.9686 28.3643 87.3003 26.6726C89.4616 25.1046 92.8631 23.4279 96.545 24.768C100.227 26.1081 101.755 29.579 102.403 32.1694C103.101 34.9641 103.212 38.3306 102.961 41.8715C102.454 49.0239 100.378 58.0948 96.9596 67.486C93.5415 76.8771 89.3013 85.1605 85.0922 90.9654C83.0084 93.8392 80.7598 96.347 78.4281 98.0387C76.2668 99.6067 72.8653 101.283 69.1834 99.9434C65.5015 98.6033 63.9736 95.1323 63.3259 92.5419C62.627 89.7473 62.5165 86.3808 62.7675 82.8399C63.0362 79.0501 63.7454 74.7216 64.8613 70.0923C64.3284 70.2408 63.7882 70.3789 63.2422 70.507C55.7295 72.2689 46.1179 72.3592 36.0966 70.5922C26.0753 68.8252 17.0743 65.4529 10.6173 61.2278C7.39689 59.1205 4.59889 56.6637 2.68157 53.8868C0.747102 51.085 -0.475968 47.6548 0.177277 43.9501C0.830522 40.2454 3.15301 37.4404 5.92909 35.4692C8.68055 33.5155 12.1501 32.1638 15.897 31.2851ZM43.0426 31.1999C40.2794 30.7127 37.5473 30.3666 34.8818 30.1579C32.7349 26.5068 31.1738 23.0124 30.2381 19.9135C29.3587 17.001 29.1042 14.6775 29.2605 13.0166C29.414 11.3858 29.9099 10.7627 30.2012 10.5183C30.4925 10.2739 31.1923 9.89373 32.8249 10.0257C34.4877 10.1602 36.7318 10.8143 39.4473 12.1861C44.861 14.9209 51.2612 20.0593 57.1453 27.0717C60.3656 30.9096 63.0063 34.8022 65.0247 38.4919C58.9825 35.2415 51.3644 32.6672 43.0426 31.1999ZM68.2285 53.587C69.1291 54.8914 69.1776 55.679 69.1199 56.0679C68.9934 56.2676 68.8688 56.3968 68.7685 56.4809C68.4772 56.7254 67.7774 57.1055 66.1447 56.9735C64.4819 56.839 62.2379 56.1849 59.5224 54.8132C55.0939 52.576 50.0054 48.7306 45.0792 43.5667C44.4183 42.8739 45.0402 41.795 45.971 42.0195C52.9558 43.7041 58.872 46.2005 63.0464 48.932C65.5922 50.5978 67.2807 52.2142 68.2285 53.587ZM34.1639 46.3554C39.6519 52.8957 45.7593 58.249 51.6515 61.8581C47.4499 61.9541 42.7625 61.6133 37.8331 60.7441C28.8181 59.1545 21.168 56.181 16.0927 52.86C13.547 51.1942 11.8585 49.5779 10.9107 48.2051C9.98002 46.8572 9.95933 46.0611 10.0254 45.6866C10.0914 45.3121 10.3831 44.5711 11.7187 43.6228C13.0788 42.657 15.2183 41.7156 18.1803 41.0209C21.3028 40.2886 25.0687 39.8939 29.2573 39.9195C30.7504 42.0863 32.3905 44.2419 34.1639 46.3554ZM78.1658 60.6456C81.3589 51.8725 85.2076 44.4768 88.732 39.6161C89.7789 38.1722 90.7384 37.0343 91.5806 36.1751C92.1081 35.637 92.9574 35.9461 93.0156 36.6974C93.1085 37.8969 93.112 39.3854 92.9859 41.1644C92.5614 47.1534 90.7558 55.2927 87.5627 64.0658C84.3695 72.8388 80.5209 80.2345 76.9964 85.0953C75.9495 86.5391 74.99 87.677 74.1478 88.5362C73.6204 89.0744 72.771 88.7652 72.7128 88.0139C72.6199 86.8144 72.6164 85.326 72.7425 83.547C73.167 77.5579 74.9726 69.4186 78.1658 60.6456Z" fill="white"/>
<path fill-rule="evenodd" clip-rule="evenodd" d="M123.16 83H110.776V16.376H133.624C149.176 16.376 158.968 24.728 158.968 38.168C158.968 52.28 147.928 61.688 131.512 61.688H123.16V83ZM123.16 50.84H133.72C141.592 50.84 146.104 46.808 146.104 39.704C146.104 32.216 140.632 27.224 132.472 27.224H123.16V50.84Z" fill="white"/>
<path d="M175.19 83H162.998V36H173L172.886 44.792C176.342 39.224 182.006 35.96 188.15 35.96C190.646 35.96 193.046 36.44 195.062 37.208L192.182 48.44C190.454 47.864 188.246 47.48 186.23 47.48C181.943 47.48 177.985 49.4055 175.19 52.7985V83Z" fill="white"/>
<path fill-rule="evenodd" clip-rule="evenodd" d="M217.309 83.96C231.997 83.96 241.981 73.976 241.981 59C241.981 44.696 232.861 35.384 218.749 35.384C203.965 35.384 194.173 45.368 194.173 60.44C194.173 74.648 203.197 83.96 217.309 83.96ZM218.365 73.688C211.165 73.688 206.557 68.12 206.557 59.384C206.557 51.032 210.781 45.752 217.693 45.752C224.893 45.752 229.501 51.416 229.501 60.152C229.501 68.504 225.277 73.688 218.365 73.688Z" fill="white"/>
<path d="M290.616 83H278.328V55.928C278.328 49.592 275.256 46.232 269.304 46.232C265.76 46.232 262.539 47.4596 259.8 49.7028V83H247.608V36H259.8V44.1149C264.12 38.8349 266.808 35.576 273.528 35.576C284.088 35.576 290.616 42.68 290.616 54.296V83Z" fill="white"/>
<path fill-rule="evenodd" clip-rule="evenodd" d="M318.513 83.96C333.201 83.96 343.185 73.976 343.185 59C343.185 44.696 334.065 35.384 319.953 35.384C305.169 35.384 295.377 45.368 295.377 60.44C295.377 74.648 304.401 83.96 318.513 83.96ZM319.569 73.688C312.369 73.688 307.761 68.12 307.761 59.384C307.761 51.032 311.985 45.752 318.897 45.752C326.097 45.752 330.705 51.416 330.705 60.152C330.705 68.504 326.481 73.688 319.569 73.688Z" fill="white"/>
<path d="M377.94 82.04C374.868 83.096 371.508 83.672 368.244 83.672C357.876 83.672 351.636 77.816 351.636 68.312V46.136H343.204V36.344H351.636V22.808H363.732V36.344H375.54V46.136H363.732V67.64C363.732 71.576 366.516 74.168 370.932 74.168C372.372 74.168 374.1 73.88 375.444 73.304L377.94 82.04Z" fill="white"/>
<path fill-rule="evenodd" clip-rule="evenodd" d="M403.994 83.96C409.562 83.96 415.418 82.904 420.506 80.792L417.818 72.248C414.074 73.784 409.946 74.648 406.01 74.648C397.578 74.648 392.438 70.7518 390.982 63.128H421.274C421.562 61.208 421.754 58.328 421.754 56.12C421.754 43.448 413.978 35.384 401.594 35.384C387.674 35.384 378.362 45.368 378.362 59.864C378.362 74.84 388.058 83.96 403.994 83.96ZM410.234 55.64H390.672C391.344 48.5871 394.881 44.888 400.73 44.888C406.778 44.888 410.234 48.728 410.234 55.64Z" fill="white"/>
<path d="M453.845 81.168H443.941V63.08H426.045V53.464H443.941V35.568H453.845V53.464H471.645V63.08H453.845V81.168Z" fill="white"/>
</svg>
